<svg xmlns="http://www.w3.org/2000/svg" viewBox="0 0 88 88"><path d="M63 16.257V14a1 1 0 0 0-1-1h-4a1 1 0 0 0-1 1v2.257a6.837 6.837 0 0 0-5 6.574 6.862 6.862 0 0 0 3.316 5.857l6.28 3.769a.845.845 0 0 1 .404.712.832.832 0 0 1-.831.831H58.83a.832.832 0 0 1-.831-.831V32a1 1 0 0 0-1-1h-4a1 1 0 0 0-1 1v1.169a6.837 6.837 0 0 0 5 6.574V42a1 1 0 0 0 1 1h4a1 1 0 0 0 1-1v-2.257a6.825 6.825 0 0 0 1.684-12.431l-6.28-3.769a.845.845 0 0 1-.404-.712.832.832 0 0 1 .831-.831h2.338a.832.832 0 0 1 .831.831V24a1 1 0 0 0 1 1h4a1 1 0 0 0 1-1v-1.169a6.867 6.867 0 0 0-5-6.574zM66 23h-2v-.169A2.834 2.834 0 0 0 61.169 20H58.83a2.83 2.83 0 0 0-1.457 5.258l6.281 3.77a4.826 4.826 0 0 1-1.798 8.916 1 1 0 0 0-.857.99V41h-2v-2.066a1 1 0 0 0-.857-.99A4.835 4.835 0 0 1 54 33.169V33h2v.169A2.834 2.834 0 0 0 58.831 36h2.338a2.83 2.83 0 0 0 1.457-5.258l-6.281-3.77A4.851 4.851 0 0 1 54 22.832a4.834 4.834 0 0 1 4.142-4.776 1 1 0 0 0 .858-.99V15h2v2.066a1 1 0 0 0 .857.99A4.85 4.85 0 0 1 66 22.831z" style="fill:#202021"/><path d="M60 5a23 23 0 1 0 23 23A23.026 23.026 0 0 0 60 5zm0 44a21 21 0 1 1 21-21 21.024 21.024 0 0 1-21 21z" style="fill:#202021"/><path d="M60 1a26.986 26.986 0 0 0-22.428 42.014L31 49.586l-2.293-2.293a1 1 0 0 0-1.414 0L3.778 70.808a9.485 9.485 0 0 0 13.414 13.414l23.515-23.515a1 1 0 0 0 0-1.414L38.414 57l6.572-6.572A26.996 26.996 0 1 0 60 1zM15.778 82.808A7.485 7.485 0 0 1 5.192 72.222L24.5 52.914 35.086 63.5zM36.5 62.086 25.914 51.5 28 49.414 38.586 60zm6.845-12.845L37 55.586 32.414 51l6.346-6.345a27.873 27.873 0 0 0 4.585 4.586zM60 53a25 25 0 1 1 25-25 25.036 25.036 0 0 1-25 25z" style="fill:#202021"/></svg>

